<svg xmlns="http://www.w3.org/2000/svg" xmlns:xlink="http://www.w3.org/1999/xlink" viewBox="0 0 171.6 171.6" xmlns:v="https://vecta.io/nano"><defs><path id="A" d="M0 0h172v172H0z"/></defs><clipPath id="B"><use xlink:href="#A"/></clipPath><g clip-path="url(#B)"><path d="M0 85.8C0 38.4 38.4 0 85.8 0s85.8 38.4 85.8 85.8-38.4 85.8-85.8 85.8C38.4 171.5 0 133.1 0 85.8z" fill="#5865f2"/><path d="M124.4 50.9c-7.3-3.3-14.9-5.7-22.8-7-1 1.8-2.1 4.1-2.9 6a82.55 82.55 0 0 0-25.3 0c-.9-2.1-1.9-4.1-3-6-7.9 1.3-15.6 3.7-22.8 7.1-14.4 21.5-18.3 42.4-16.4 63.1 8.5 6.3 17.9 11.1 28 14.1 2.3-3.1 4.3-6.3 6-9.7-3.3-1.2-6.4-2.7-9.4-4.5.8-.6 1.5-1.2 2.3-1.8 17.7 8.4 38.3 8.4 56 0 .8.6 1.5 1.2 2.3 1.8-3 1.8-6.2 3.3-9.5 4.5 1.7 3.4 3.7 6.6 6 9.7 10.1-3.1 19.6-7.8 28-14.1 2.2-24-4-44.8-16.5-63.2zm-56.8 50.4c-5.5 0-9.9-5-9.9-11.1S62.1 79 67.6 79c5.6 0 10 5 10 11.2-.1 6.1-4.4 11.1-10 11.1zm36.8 0c-5.5 0-9.9-5-9.9-11.1S98.9 79 104.4 79c5.6 0 10 5 9.9 11.2s-4.4 11.1-9.9 11.1z" fill="#fff"/></g></svg>